<?xml version="1.0" ?><!-- Uploaded to: SVG Repo, www.svgrepo.com, Generator: SVG Repo Mixer Tools -->
<svg fill="#000000" width="800px" height="800px" viewBox="0 0 512 512" data-name="Layer 1" id="Layer_1" xmlns="http://www.w3.org/2000/svg"><title/><path d="M375.52,62.24a19.69,19.69,0,0,0-4-.41c-.75,0-1.46,0-2.15,0-18.15,0-35.52,0-51.28,10.83a58.42,58.42,0,0,0-9.45,8.19C299.11,70.71,286,64,269.56,62.24a19.72,19.72,0,0,0-4-.41c-.74,0-1.45,0-2.15,0-18.15,0-35.51,0-51.27,10.83a58.93,58.93,0,0,0-9.46,8.19C193.15,70.71,180,64,163.6,62.24a19.72,19.72,0,0,0-4-.41c-.74,0-1.45,0-2.15,0-18.15,0-35.51,0-51.27,10.83-17.07,11.68-25.79,30.46-26.6,50.76-.67,16.84,0,33.84,0,50.68V432.54a17.91,17.91,0,0,0,17.66,17.65H415.09a17.9,17.9,0,0,0,17.65-17.65v-301C432.74,95.38,412.51,66.16,375.52,62.24Zm-48.74,60.84c2-26,24.55-25.94,44.72-25.94,25.51,1.37,25.94,23.5,25.94,42.48V342.43H326.78V131.5c0-1.17-.08-2.31-.12-3.46C326.64,126.38,326.66,124.72,326.78,123.08Zm70.66,291.81H326.78V377.74h70.66v37.15ZM114.86,377.74h70.66v37.15H114.86Zm106,0h70.66v37.15H220.82Zm0-254.66c2-26,24.55-25.94,44.71-25.94,21.37,1.15,25.13,16.86,25.79,33.08-.29,14.61.16,29.3.16,43.88V342.43H220.82V131.5c0-1.17-.08-2.31-.13-3.46C220.68,126.38,220.69,124.72,220.82,123.08Zm-106,0c2-26,24.55-25.94,44.71-25.94,21.37,1.15,25.13,16.86,25.79,33.08-.3,14.61.16,29.3.16,43.88V342.43H114.86V135.62C114.86,131.49,114.54,127.21,114.86,123.08Z"/></svg>